<?xml version="1.0" encoding="UTF-8" standalone="no"?>
<!-- Created with Inkscape (http://www.inkscape.org/) -->

<svg
   width="361.94974mm"
   height="362.06445mm"
   viewBox="0 0 361.94974 362.06445"
   version="1.1"
   id="svg5"
   sodipodi:docname="logo.svg"
   inkscape:version="1.1 (1:1.1+202105261517+ce6663b3b7)"
   xmlns:inkscape="http://www.inkscape.org/namespaces/inkscape"
   xmlns:sodipodi="http://sodipodi.sourceforge.net/DTD/sodipodi-0.dtd"
   xmlns="http://www.w3.org/2000/svg"
   xmlns:svg="http://www.w3.org/2000/svg">
  <sodipodi:namedview
     id="namedview7"
     pagecolor="#ffffff"
     bordercolor="#666666"
     borderopacity="1.0"
     inkscape:pageshadow="2"
     inkscape:pageopacity="0.0"
     inkscape:pagecheckerboard="0"
     inkscape:document-units="mm"
     showgrid="false"
     inkscape:lockguides="false"
     inkscape:zoom="0.08"
     inkscape:cx="-1993.75"
     inkscape:cy="2006.25"
     inkscape:window-width="1920"
     inkscape:window-height="1016"
     inkscape:window-x="0"
     inkscape:window-y="27"
     inkscape:window-maximized="1"
     inkscape:current-layer="g2633"
     fit-margin-top="0"
     fit-margin-left="0"
     fit-margin-right="0"
     fit-margin-bottom="0" />
  <defs
     id="defs2">
    <clipPath
       id="clip0">
      <rect
         width="701"
         height="240"
         fill="#ffffff"
         id="rect5656"
         x="0"
         y="0" />
    </clipPath>
  </defs>
  <g
     inkscape:label="Layer 1"
     inkscape:groupmode="layer"
     id="layer1"
     transform="translate(-1715.4742,275.97483)">
    <g
       style="fill:none"
       id="g1289"
       transform="matrix(0.26458333,0,0,0.26458333,-399.81564,59.51893)">
      <g
         style="fill:none"
         id="g2633"
         transform="translate(634.6342,-619.17359)">
        <path
           id="path6438"
           style="color:#000000;fill:#000000;-inkscape-stroke:none"
           d="m 7586.8682,-648.83434 c -14.909,0 -29.7827,5.72524 -41.0957,17.17774 l -168.4316,168.43359 c -22.905,22.905 -22.905,59.77734 0,82.40234 l 95.5273,95.5293 250.836,-250.83594 -95.5293,-95.52929 c -11.452,-11.4525 -26.3977,-17.17774 -41.3067,-17.17774 z m 1087.002,0.41992 c -6.11,-0.13975 -12.3249,3.35099 -14.4199,10.33399 -12.02,42.458 -101.4004,171.50586 -232.4004,171.50586 -20.67,2.234 -42.4598,5.3079 -62.0098,13.1289 -66.2,27.095 -48.8889,95.52946 -36.8789,104.18946 l 131.5703,139.94144 c 59.21,-1.955 82.12,-13.1279 121.5,-56.42387 148.05,-148.04294 110.8997,-350.83461 106.4297,-371.22461 -1.675,-7.54194 -7.681,-11.31142 -13.791,-11.45117 z m -911.4512,151.40039 -94.4101,94.41211 164.0547,164.05664 c 32.0843,-30.32585 66.8961,-58.42272 104.9609,-83.86523 z m -156.2207,156.13672 -94.4101,94.41211 178.0996,178.101533 c 25.1999,-37.368803 52.1795,-73.287103 81.6543,-107.169903 z m 680.9024,28.49024 -42.9746,46.31054 c 50.5095,40.01156 97.128,83.98116 138.7089,133.07816 l 38.9063,-36.0938 -131.2813,-139.94334 c -1.12,-1.117 -2.2393,-2.23456 -3.3593,-3.35156 z m -418.5879,129.9512 c -4.042,0 -7.3184,3.2782 -7.3184,7.3203 v 102.460903 h 2.4297 c -1.577,0 -3.112,0.509 -4.377,1.4531 l -127.4902,95.1426 c -5.644,4.2119 -2.665,13.1836 4.377,13.1836 h 315.3476 14.3145 286.3945 c 7.04,0 10.02,-8.9717 4.377,-13.1836 l -127.4922,-95.1426 c -1.266,-0.9441 -2.802,-1.4531 -4.375,-1.4531 h 2.4277 V -175.11557 c 0,-4.0421 -3.2764,-7.3203 -7.3164,-7.3203 z m 387.8203,256.835903 -138.2793,7.0684 c -2.203,0.1127 -4.3899,1.3105 -5.9199,3.25 l -30.0645,38.035097 c -4.538,5.7451 -0.7258,13.3132 5.8242,11.5567 l 168.3379,-45.105497 c 8.497,-2.2761 8.5836,-15.2387 0.1016,-14.8047 z m -424.3399,1.2949 c -8.487,-0.434 -8.4006,12.5286 0.1,14.8047 l 168.3359,45.105497 c 6.55,1.7564 10.3632,-5.8116 5.8262,-11.5567 l -30.0664,-38.035097 c -1.529,-1.9395 -3.717,-3.1383 -5.92,-3.2481 z m 594.836,91.699197 c -26.7963,35.3662 -55.6622,69.427 -86.7363,102.0938 l 210.1875,210.1875 94.4199,-94.4102 z m -406.293,31.2754 c -0.3274,-0.023 -0.6514,-0.013 -0.9707,0.029 -0.426,0.057 -0.8423,0.1707 -1.2383,0.3457 l -99.3613,43.9593 c -6.1,2.6984 -2.2515,13.9857 4.3945,12.8926 l 120.8008,-19.8672 120.7988,19.8672 c 6.646,1.0931 10.4965,-10.1942 4.3965,-12.8926 l -99.3633,-43.959 c -1.583,-0.7 -3.4751,-0.4436 -5.1171,0.6914 l -20.7149,14.3243 -20.7148,-14.3243 c -0.924,-0.6384 -1.9278,-0.9981 -2.9102,-1.0664 z m -259.0156,56.2969 -353.7344,381.7988 c -17.318,19.55 -17.3178,48.8797 1.1172,68.4297 18.436,18.44 48.8806,19.5611 68.4336,1.1211 l 385.3984,-357.0722 c -35.6892,-30.1096 -69.5838,-61.4292 -101.2148,-94.2774 z m 516.1973,75.6777 c -32.4292,29.8313 -66.749,58.4714 -102.8243,86.002 l 219.168,219.1699 94.4082,-94.4199 z m 392.9023,106.1211 -224.8594,224.8594 282.4004,57.541 z" />
      </g>
    </g>
  </g>
</svg>
